{"glyphs":{":":{"x_min":0,"x_max":278,"ha":278,"o":"m 83 389 l 194 389 l 194 507 l 83 507 z m 83 0 l 194 0 l 194 118 l 83 118 z"},"$":{"x_min":0,"x_max":556,"ha":556,"o":"m 253 775 l 253 693 b 226 692 172 690 126 662 b 91 640 41 595 41 512 b 41 405 86 363 250 314 l 250 80 b 154 82 128 146 130 190 l 28 190 b 28 147 32 98 84 51 b 144 -3 206 -4 250 -5 l 250 -104 l 301 -104 l 301 -5 b 336 -2 394 3 440 33 b 466 50 530 100 530 198 b 530 338 405 376 303 404 l 303 613 b 362 611 413 594 415 530 l 520 530 b 516 687 349 693 304 694 l 304 775 z m 252 419 b 203 433 140 452 140 519 b 140 537 144 602 252 613 z m 303 301 b 354 285 426 261 426 186 b 426 137 390 81 303 80 z"},"?":{"x_min":0,"x_max":500,"ha":500,"o":"m 74 625 b 142 653 195 653 209 653 b 235 653 344 651 344 549 b 344 491 308 452 231 371 b 179 316 179 310 179 270 l 179 164 l 263 164 l 263 270 b 263 283 264 291 271 301 b 271 302 322 353 327 358 b 410 442 448 479 448 558 b 448 601 431 644 403 674 b 363 717 299 736 216 736 b 145 736 98 723 74 715 z m 171 0 l 275 0 l 275 102 l 171 102 z"},"<":{"x_min":0,"x_max":584,"ha":584,"o":"m 37 210 l 547 10 l 547 97 l 141 251 l 547 406 l 547 492 l 37 292 z"},"'":{"x_min":0,"x_max":278,"ha":278,"o":"m 98 692 l 112 446 l 166 446 l 181 692 z"},"=":{"x_min":0,"x_max":584,"ha":584,"o":"m 37 314 l 547 314 l 547 391 l 37 391 z m 37 111 l 547 111 l 547 189 l 37 189 z"},"a":{"x_min":0,"x_max":556,"ha":556,"o":"m 479 0 b 472 51 471 118 471 126 l 475 366 b 475 389 474 413 458 443 b 431 494 353 517 280 517 b 227 517 156 505 118 463 b 89 429 86 394 83 368 l 177 368 b 178 388 183 453 278 453 b 305 453 346 445 365 420 b 383 398 383 371 383 309 b 354 311 339 312 315 312 b 275 312 195 309 141 279 b 67 236 53 172 53 132 b 53 49 115 -16 230 -16 b 272 -16 340 -8 385 75 b 385 49 387 25 394 0 z m 383 244 b 381 174 380 146 359 112 b 336 77 300 58 252 58 b 168 58 148 113 148 145 b 148 247 291 247 329 247 b 352 247 366 246 383 244 z"},"L":{"x_min":0,"x_max":556,"ha":556,"o":"m 93 0 l 528 0 l 528 89 l 192 89 l 192 722 l 93 722 z"},"3":{"x_min":0,"x_max":556,"ha":556,"o":"m 38 178 b 39 149 40 99 79 55 b 123 4 196 -17 269 -17 b 430 -17 509 90 509 187 b 509 201 509 334 361 355 b 468 379 499 461 499 518 b 499 614 424 705 273 705 b 217 705 55 688 49 516 l 150 516 b 159 602 224 625 276 625 b 345 625 398 594 398 516 b 398 404 282 390 213 396 l 213 315 b 248 316 273 317 309 310 b 360 299 409 261 409 188 b 409 127 368 65 271 65 b 186 65 143 112 144 178 z"},";":{"x_min":0,"x_max":278,"ha":278,"o":"m 95 387 l 211 387 l 211 507 l 95 507 z m 113 120 l 49 -126 l 117 -126 l 229 120 z"},"J":{"x_min":0,"x_max":556,"ha":556,"o":"m 21 196 b 21 167 23 110 57 64 b 107 -2 191 -11 229 -11 b 348 -11 453 61 453 194 l 453 722 l 353 722 l 353 221 b 353 199 353 153 336 124 b 315 90 277 73 236 73 b 185 73 155 98 143 117 b 128 140 128 171 127 196 z"},"V":{"x_min":0,"x_max":667,"ha":667,"o":"m 647 722 l 546 722 l 330 105 l 125 722 l 14 722 l 271 0 l 381 0 z"},"\"":{"x_min":0,"x_max":400,"ha":400,"o":"m 76 692 l 91 446 l 145 446 l 159 692 z m 241 692 l 255 446 l 309 446 l 324 692 z"},"7":{"x_min":0,"x_max":556,"ha":556,"o":"m 35 609 l 391 609 l 125 0 l 238 0 l 492 608 l 492 692 l 35 692 z"},"S":{"x_min":0,"x_max":667,"ha":667,"o":"m 56 211 b 56 176 57 118 98 65 b 155 -8 267 -17 322 -17 b 507 -17 607 80 607 208 b 607 238 602 308 535 352 b 493 380 474 384 302 428 b 214 449 172 471 172 535 b 172 607 232 652 332 652 b 403 652 479 632 484 542 l 588 542 b 586 572 584 621 544 665 b 486 728 389 736 341 736 b 205 736 66 672 66 525 b 66 477 82 423 141 383 b 178 358 227 346 337 319 b 438 294 503 278 503 197 b 503 161 484 68 334 68 b 168 68 162 161 160 211 z"},"}":{"x_min":0,"x_max":334,"ha":334,"o":"m 335 338 b 203 353 203 423 203 487 l 203 521 b 203 637 193 738 -1 750 l -1 699 b 121 689 122 604 122 537 l 122 506 b 122 427 123 329 255 313 b 122 295 122 193 122 119 l 122 93 b 122 23 122 -64 -1 -74 l -1 -125 b 203 -114 203 4 203 111 l 203 138 b 203 187 203 226 243 255 b 276 280 321 286 335 287 z"},"Z":{"x_min":0,"x_max":611,"ha":611,"o":"m 35 0 l 578 0 l 578 88 l 150 88 l 571 623 l 571 722 l 46 722 l 46 634 l 452 634 l 35 100 z"},"x":{"x_min":0,"x_max":556,"ha":556,"o":"m 335 257 l 531 502 l 420 502 l 280 313 l 146 502 l 23 502 l 211 263 l 12 0 l 122 0 l 264 201 l 407 0 l 531 0 z"},")":{"x_min":0,"x_max":333,"ha":333,"o":"m 76 752 b 134 562 169 447 169 306 b 169 244 162 181 141 90 b 120 -5 98 -73 82 -123 l 148 -123 b 165 -80 191 -15 219 75 b 242 151 260 229 260 308 b 260 454 195 619 141 752 z"},"&":{"x_min":0,"x_max":778,"ha":778,"o":"m 595 468 b 595 344 579 291 542 229 l 365 404 b 407 432 505 496 505 602 b 505 640 489 676 462 701 b 439 722 404 746 312 746 b 187 746 118 681 118 587 b 118 501 171 449 201 421 b 126 365 49 304 49 191 b 49 76 137 -17 292 -17 b 391 -17 475 23 542 89 l 636 0 l 776 0 l 604 167 b 671 256 691 328 692 468 z m 301 469 b 257 512 225 551 225 592 b 225 630 261 666 315 666 b 375 666 398 627 398 598 b 398 535 326 486 301 469 z m 477 149 b 451 122 398 67 307 67 b 247 67 154 94 154 194 b 154 248 182 297 265 358 z"},"_":{"x_min":0,"x_max":500,"ha":500,"o":"m 0 -125 l 500 -125 l 500 -75 l 0 -75 z"},"v":{"x_min":0,"x_max":556,"ha":556,"o":"m 222 0 l 317 0 l 537 502 l 433 502 l 277 104 l 117 502 l 12 502 z"},"O":{"x_min":0,"x_max":778,"ha":778,"o":"m 59 356 b 59 158 139 -17 385 -17 b 642 -17 719 176 719 368 b 719 613 593 741 393 741 b 326 741 227 725 152 644 b 73 559 59 438 59 356 z m 164 362 b 164 510 211 657 394 657 b 559 657 613 533 613 369 b 613 320 607 206 548 134 b 506 84 447 68 388 68 b 331 68 269 83 228 134 b 178 196 164 283 164 362 z"},"(":{"x_min":0,"x_max":333,"ha":333,"o":"m 257 -123 b 199 67 164 182 164 324 b 164 386 171 448 192 540 b 213 635 235 703 251 752 l 185 752 b 168 709 142 645 114 555 b 91 479 73 401 73 322 b 73 176 138 10 192 -123 z"},"C":{"x_min":0,"x_max":667,"ha":667,"o":"m 630 527 b 617 691 473 732 371 732 b 114 732 55 505 55 353 b 55 213 104 -11 358 -11 b 482 -11 613 48 628 190 l 518 190 b 515 173 509 142 483 114 b 452 82 410 71 366 71 b 201 71 162 218 162 354 b 162 474 193 652 367 652 b 506 652 519 552 523 527 z"},"W":{"x_min":0,"x_max":1000,"ha":1000,"o":"m 8 722 l 213 0 l 321 0 l 500 617 l 667 0 l 778 0 l 992 722 l 894 722 l 730 123 l 567 722 l 443 722 l 271 128 l 115 722 z"},"A":{"x_min":0,"x_max":722,"ha":722,"o":"m 9 0 l 112 0 l 190 188 l 525 188 l 603 0 l 712 0 l 420 722 l 313 722 z m 362 623 l 495 269 l 222 269 z"},"f":{"x_min":0,"x_max":333,"ha":333,"o":"m 339 727 b 319 730 289 734 262 734 b 197 734 157 711 136 679 b 119 653 115 628 115 559 l 115 502 l 16 502 l 16 434 l 115 434 l 115 0 l 208 0 l 208 434 l 325 434 l 325 502 l 208 502 l 208 581 b 208 616 208 654 284 654 b 303 654 323 653 339 652 z"},"Q":{"x_min":0,"x_max":778,"ha":778,"o":"m 754 79 l 701 79 b 635 79 596 70 572 65 b 695 162 703 305 703 375 b 703 548 630 739 390 739 b 299 739 209 708 148 641 b 73 558 58 442 58 356 b 58 100 197 -15 369 -15 b 393 -15 451 -10 500 -5 b 548 -1 620 0 634 0 l 754 0 z m 164 354 b 164 433 181 656 381 656 b 521 656 601 544 601 358 b 601 283 585 63 379 63 b 207 63 164 235 164 354 z"},"w":{"x_min":0,"x_max":833,"ha":833,"o":"m 12 502 l 178 0 l 289 0 l 420 413 l 538 0 l 646 0 l 823 502 l 726 502 l 600 106 l 486 502 l 363 502 l 236 102 l 115 502 z"},"-":{"x_min":0,"x_max":333,"ha":333,"o":"m 42 225 l 293 225 l 293 301 l 42 301 z"},"E":{"x_min":0,"x_max":611,"ha":611,"o":"m 76 0 l 537 0 l 537 88 l 176 88 l 176 328 l 512 328 l 512 412 l 176 412 l 176 637 l 529 637 l 529 722 l 76 722 z"},"s":{"x_min":0,"x_max":500,"ha":500,"o":"m 43 149 b 42 28 137 -14 239 -14 b 291 -14 344 -7 388 20 b 425 43 456 91 456 147 b 456 179 446 214 418 240 b 388 268 358 276 219 309 b 193 316 148 327 148 373 b 148 445 236 445 250 445 b 284 445 350 439 347 363 l 443 363 b 443 384 443 408 430 436 b 400 496 312 514 249 514 b 133 514 53 454 53 362 b 53 257 141 236 246 212 b 321 195 356 186 356 137 b 356 120 350 103 340 90 b 320 65 291 58 252 58 b 161 58 141 111 142 149 z"},">":{"x_min":0,"x_max":584,"ha":584,"o":"m 547 210 l 547 292 l 37 492 l 37 406 l 443 251 l 37 97 l 37 10 z"},"l":{"x_min":0,"x_max":278,"ha":278,"o":"m 90 0 l 184 0 l 184 721 l 90 721 z"},"8":{"x_min":0,"x_max":556,"ha":556,"o":"m 190 365 b 159 355 123 345 90 312 b 55 279 37 231 37 185 b 37 132 61 80 98 46 b 148 0 218 -12 277 -12 b 449 -12 515 96 515 191 b 515 325 405 355 364 366 b 461 384 505 455 505 523 b 505 629 421 708 275 708 b 93 708 51 581 51 519 b 51 450 98 385 190 365 z m 409 521 b 409 453 352 409 276 409 b 204 409 148 454 148 521 b 148 590 205 634 279 634 b 362 634 409 584 409 521 z m 138 194 b 138 267 194 324 279 324 b 358 324 415 274 415 197 b 415 145 388 67 277 67 b 174 67 138 140 138 194 z"},"\\":{"x_min":0,"x_max":278,"ha":278,"o":"m 290 -16 l 57 713 l -9 713 l 225 -16 z"},"e":{"x_min":0,"x_max":556,"ha":556,"o":"m 506 234 b 508 316 513 515 288 515 b 259 515 199 512 151 478 b 72 423 52 341 52 242 b 52 83 127 -15 285 -15 b 386 -15 436 27 458 52 b 494 91 498 132 501 157 l 407 157 b 399 85 350 53 289 53 b 186 53 143 130 145 234 z m 149 300 b 151 411 225 448 286 448 b 402 448 411 348 410 300 z"},"b":{"x_min":0,"x_max":611,"ha":611,"o":"m 182 722 l 88 722 l 88 90 l 86 0 l 177 0 l 179 76 b 189 61 200 44 228 25 b 271 -4 316 -7 340 -7 b 409 -7 476 22 516 79 b 541 112 564 165 564 262 b 564 372 530 422 505 451 b 459 503 396 515 346 515 b 232 515 195 452 182 429 z m 465 256 b 465 174 436 61 320 61 b 180 61 180 218 180 251 b 180 283 180 451 324 451 b 455 451 465 306 465 256 z"},"%":{"x_min":0,"x_max":889,"ha":889,"o":"m 222 711 b 109 711 52 633 52 528 b 52 405 126 353 213 353 b 304 353 377 410 377 534 b 377 625 337 711 222 711 z m 215 411 b 129 411 129 506 129 529 b 129 553 129 651 215 651 b 286 651 298 579 298 530 b 298 510 298 411 215 411 z m 675 346 b 586 346 511 287 511 166 b 511 83 547 -12 675 -12 b 783 -12 836 62 836 171 b 836 246 813 278 795 298 b 756 341 702 346 675 346 z m 674 47 b 598 47 590 121 590 156 b 590 186 590 290 676 290 b 754 290 760 200 760 169 b 760 133 754 47 674 47 z m 251 -39 l 692 731 l 626 731 l 185 -39 z"},"m":{"x_min":0,"x_max":944,"ha":944,"o":"m 87 0 l 182 0 l 182 285 b 182 317 183 358 204 387 b 215 402 250 442 314 442 b 388 442 424 394 424 332 l 424 0 l 519 0 l 519 281 b 519 303 519 358 541 389 b 554 407 587 442 648 442 b 696 442 728 421 744 398 b 753 385 761 366 761 322 l 761 0 l 856 0 l 856 337 b 856 485 744 515 672 515 b 561 515 520 449 503 421 b 485 458 450 515 339 515 b 296 515 228 508 180 429 l 180 502 l 85 502 l 87 435 z"},"#":{"x_min":0,"x_max":556,"ha":556,"o":"m 5 197 l 105 197 l 69 0 l 149 0 l 186 197 l 307 197 l 271 0 l 351 0 l 388 197 l 500 197 l 500 266 l 401 266 l 428 415 l 541 415 l 541 484 l 441 484 l 480 692 l 399 692 l 361 484 l 239 484 l 278 692 l 197 692 l 159 484 l 46 484 l 46 415 l 146 415 l 118 266 l 6 266 z m 199 266 l 226 415 l 348 415 l 320 266 z"},",":{"x_min":0,"x_max":278,"ha":278,"o":"m 113 120 l 49 -126 l 117 -126 l 229 120 z"},"n":{"x_min":0,"x_max":611,"ha":611,"o":"m 91 0 l 185 0 l 185 289 b 185 390 248 439 316 439 b 348 439 381 428 405 405 b 428 382 432 352 432 319 l 432 0 l 528 0 l 528 341 b 528 495 391 512 346 512 b 232 512 196 442 185 421 l 184 502 l 90 502 l 91 444 z"},"h":{"x_min":0,"x_max":611,"ha":611,"o":"m 88 0 l 183 0 l 183 266 b 183 297 183 344 199 372 b 212 396 247 439 317 439 b 425 439 425 342 425 297 l 425 0 l 521 0 l 521 314 b 521 387 514 411 504 431 b 475 492 399 511 346 511 b 276 511 214 481 183 428 l 183 721 l 88 721 z"},"z":{"x_min":0,"x_max":444,"ha":444,"o":"m 30 0 l 405 0 l 405 73 l 128 73 l 405 422 l 405 502 l 44 502 l 44 431 l 298 431 l 30 97 z"},"B":{"x_min":0,"x_max":667,"ha":667,"o":"m 95 0 l 358 0 b 415 0 471 0 521 33 b 545 49 608 99 608 197 b 608 335 506 365 464 377 b 499 390 586 421 586 540 b 586 597 566 639 535 669 b 490 713 441 722 353 722 l 95 722 z m 192 640 l 336 640 b 391 640 482 640 482 531 b 482 417 366 417 332 417 l 192 417 z m 192 331 l 367 331 b 455 331 505 278 505 206 b 505 123 442 81 363 81 l 192 81 z"},"K":{"x_min":0,"x_max":667,"ha":667,"o":"m 93 0 l 192 0 l 192 383 l 525 0 l 665 0 l 307 399 l 630 722 l 493 722 l 192 406 l 192 722 l 93 722 z"},"R":{"x_min":0,"x_max":667,"ha":667,"o":"m 86 0 l 185 0 l 185 326 l 311 326 b 432 326 457 296 469 191 b 476 136 486 48 502 0 l 609 0 b 581 80 574 142 564 227 b 554 317 523 348 454 366 b 476 372 508 382 539 413 b 571 445 590 490 590 541 b 590 599 564 654 510 688 b 457 722 381 722 344 722 l 86 722 z m 183 638 l 341 638 b 381 638 485 638 485 521 b 485 461 450 435 436 427 b 409 411 352 411 341 411 l 183 411 z"},"T":{"x_min":0,"x_max":611,"ha":611,"o":"m 362 0 l 362 637 l 604 637 l 604 722 l 21 722 l 21 637 l 263 637 l 263 0 z"},"P":{"x_min":0,"x_max":611,"ha":611,"o":"m 88 0 l 188 0 l 188 321 l 305 321 b 435 321 485 345 523 383 b 562 422 580 469 580 524 b 580 578 563 627 527 664 b 478 717 418 722 330 722 l 88 722 z m 188 641 l 328 641 b 380 641 474 641 474 528 b 474 410 373 405 307 405 l 188 405 z"},"|":{"x_min":0,"x_max":260,"ha":260,"o":"m 89 750 l 89 -250 l 172 -250 l 172 750 z"},"t":{"x_min":0,"x_max":333,"ha":333,"o":"m 11 435 l 100 435 l 100 100 b 100 18 141 -7 227 -7 b 261 -7 288 -4 305 -1 l 305 72 b 297 70 279 67 260 67 b 193 67 193 109 193 134 l 193 435 l 305 435 l 305 504 l 193 504 l 193 639 l 100 609 l 100 504 l 11 504 z"},"M":{"x_min":0,"x_max":944,"ha":944,"o":"m 90 0 l 187 0 l 187 646 l 415 0 l 510 0 l 747 650 l 747 0 l 845 0 l 845 722 l 680 722 l 471 127 l 267 722 l 90 722 z"},"g":{"x_min":0,"x_max":611,"ha":611,"o":"m 78 -39 b 82 -107 88 -201 289 -201 b 358 -201 456 -191 498 -111 b 518 -73 522 -24 522 97 l 523 411 l 525 502 l 434 502 l 433 433 b 413 459 376 509 275 509 b 152 509 52 426 52 256 b 52 189 66 122 109 71 b 151 19 217 9 263 9 b 293 9 388 11 428 94 b 428 -42 426 -137 295 -137 b 206 -137 182 -95 178 -39 z m 287 79 b 172 79 149 181 149 258 b 149 322 165 442 284 442 b 327 442 367 425 392 398 b 417 372 431 336 431 273 b 431 182 417 155 397 129 b 374 99 342 79 287 79 z"},"j":{"x_min":0,"x_max":278,"ha":278,"o":"m 82 616 l 196 616 l 196 720 l 82 720 z m -1 -193 b 25 -196 45 -197 57 -197 b 183 -197 185 -95 185 -47 l 185 502 l 91 502 l 91 -36 b 91 -116 73 -129 -1 -126 z"},"i":{"x_min":0,"x_max":278,"ha":278,"o":"m 79 617 l 192 617 l 192 720 l 79 720 z m 89 0 l 183 0 l 183 502 l 89 502 z"},"y":{"x_min":0,"x_max":556,"ha":556,"o":"m 537 502 l 435 502 l 275 106 l 118 502 l 12 502 l 221 2 l 145 -190 l 242 -190 l 314 -3 z"},"@":{"x_min":0,"x_max":1015,"ha":1015,"o":"m 653 549 l 635 485 b 631 498 626 515 609 531 b 585 556 549 564 519 564 b 400 564 321 435 321 327 b 321 233 377 176 455 176 b 546 176 583 250 595 274 b 593 267 591 258 591 246 b 591 199 630 176 671 176 b 766 176 875 278 875 440 b 875 643 712 741 541 741 b 341 741 141 606 141 352 b 141 130 301 -17 525 -17 b 651 -17 740 25 828 89 l 803 122 b 728 69 646 27 528 27 b 331 27 187 151 187 349 b 187 571 353 697 541 697 b 691 697 828 616 828 445 b 828 315 752 226 689 226 b 676 226 645 230 645 267 b 645 288 654 318 661 343 l 722 549 z m 607 436 b 607 394 570 226 475 226 b 425 226 402 269 402 322 b 402 398 455 515 535 515 b 563 515 607 498 607 436 z"},".":{"x_min":0,"x_max":278,"ha":278,"o":"m 81 0 l 192 0 l 192 120 l 81 120 z"},"p":{"x_min":0,"x_max":611,"ha":611,"o":"m 85 -193 l 178 -193 l 178 56 b 205 12 259 -19 332 -19 b 452 -19 561 63 561 250 b 561 436 458 510 350 510 b 309 510 226 498 179 419 l 177 502 l 82 502 b 84 454 85 442 85 420 z m 175 236 b 175 281 175 440 325 440 b 436 440 463 346 463 256 b 463 220 458 148 422 99 b 390 55 340 50 316 50 b 184 50 175 175 175 236 z"},"X":{"x_min":0,"x_max":722,"ha":722,"o":"m 49 722 l 299 378 l 19 0 l 140 0 l 360 310 l 575 0 l 701 0 l 431 376 l 688 722 l 567 722 l 372 444 l 177 722 z"},"*":{"x_min":0,"x_max":556,"ha":556,"o":"m 480 563 l 309 544 l 414 684 l 347 721 l 278 565 l 211 720 l 145 684 l 247 544 l 78 566 l 78 493 l 244 507 l 138 368 l 206 331 l 278 487 l 345 329 l 410 369 l 308 507 l 480 488 z"},"Y":{"x_min":0,"x_max":667,"ha":667,"o":"m 289 0 l 390 0 l 390 279 l 672 722 l 560 722 l 344 368 l 131 722 l 7 722 l 289 284 z"},"c":{"x_min":0,"x_max":500,"ha":500,"o":"m 469 341 b 467 369 464 410 427 453 b 381 508 306 515 273 515 b 173 515 45 453 45 244 b 45 140 75 87 105 52 b 158 -6 236 -13 270 -13 b 394 -13 467 69 473 167 l 378 167 b 376 118 349 58 269 58 b 169 58 144 154 144 257 b 144 295 144 446 274 446 b 365 446 372 364 374 341 z"},"!":{"x_min":0,"x_max":389,"ha":389,"o":"m 262 721 l 150 721 l 169 165 l 240 165 z m 149 0 l 255 0 l 255 100 l 149 100 z"},"/":{"x_min":0,"x_max":278,"ha":278,"o":"m -9 -16 l 57 -16 l 290 713 l 225 713 z"},"[":{"x_min":0,"x_max":333,"ha":333,"o":"m 102 -125 l 275 -125 l 275 -72 l 181 -72 l 181 697 l 275 697 l 275 750 l 102 750 z"},"6":{"x_min":0,"x_max":556,"ha":556,"o":"m 510 528 b 509 555 508 599 473 640 b 449 666 398 706 307 706 b 88 706 51 466 51 315 b 51 227 63 128 114 60 b 151 12 218 -15 285 -15 b 404 -15 519 66 519 227 b 519 374 423 449 310 449 b 209 449 171 393 149 361 b 158 545 202 631 302 631 b 346 631 406 609 407 528 z m 289 61 b 212 61 156 127 156 217 b 156 296 201 372 294 372 b 409 372 423 267 423 218 b 423 105 351 61 289 61 z"},"r":{"x_min":0,"x_max":389,"ha":389,"o":"m 93 0 l 188 0 l 188 267 b 188 353 214 419 325 419 b 336 419 345 419 352 418 b 359 417 365 416 370 414 l 370 506 b 354 507 333 508 305 504 b 263 498 203 475 185 405 l 183 502 l 88 502 b 91 469 93 434 93 400 z"},"2":{"x_min":0,"x_max":556,"ha":556,"o":"m 53 0 l 493 0 l 493 79 l 164 79 l 285 194 b 305 214 393 305 413 330 b 488 425 491 459 491 503 b 491 651 383 705 277 705 b 233 705 175 696 127 655 b 67 603 64 537 63 503 l 168 503 b 168 529 170 624 281 624 b 380 624 392 545 392 511 b 392 474 381 443 341 388 b 310 346 272 306 234 269 l 53 91 z"},"{":{"x_min":0,"x_max":334,"ha":334,"o":"m -1 287 b 131 272 131 202 131 138 l 131 104 b 131 -12 141 -113 335 -125 l 335 -74 b 213 -64 212 21 212 88 l 212 119 b 212 198 211 296 79 313 b 212 330 212 432 212 506 l 212 532 b 212 602 212 689 335 699 l 335 750 b 131 739 131 621 131 514 l 131 487 b 131 438 131 399 91 370 b 58 345 13 339 -1 338 z"},"9":{"x_min":0,"x_max":556,"ha":556,"o":"m 46 165 b 50 21 160 -16 254 -16 b 508 -16 509 247 509 349 b 509 443 501 493 489 535 b 449 675 340 705 266 705 b 157 705 44 641 44 482 b 44 337 145 263 255 263 b 309 263 374 282 410 350 b 415 242 414 63 262 63 b 184 63 151 105 151 165 z m 399 480 b 399 397 351 339 273 339 b 197 339 142 391 142 481 b 142 563 185 630 266 630 b 334 630 399 580 399 480 z"}," ":{"x_min":0,"x_max":278,"ha":278,"o":""},"I":{"x_min":0,"x_max":278,"ha":278,"o":"m 88 0 l 188 0 l 188 722 l 88 722 z"},"H":{"x_min":0,"x_max":722,"ha":722,"o":"m 88 722 l 88 0 l 188 0 l 188 326 l 531 326 l 531 0 l 631 0 l 631 722 l 531 722 l 531 412 l 188 412 l 188 722 z"},"4":{"x_min":0,"x_max":556,"ha":556,"o":"m 340 0 l 436 0 l 436 150 l 537 150 l 537 231 l 436 231 l 436 701 l 328 701 l 28 269 l 28 150 l 340 150 z m 104 231 l 343 596 l 343 231 z"},"~":{"x_min":0,"x_max":584,"ha":584,"o":"m 82 174 b 91 229 128 249 155 249 b 175 249 184 246 263 219 b 309 203 384 178 424 178 b 464 178 543 197 557 328 l 503 328 b 492 271 460 255 430 255 b 406 255 393 259 304 289 b 205 321 193 325 159 325 b 126 325 95 314 67 281 b 40 248 33 216 27 174 z"},"D":{"x_min":0,"x_max":722,"ha":722,"o":"m 88 0 l 291 0 b 397 0 486 0 557 59 b 612 103 677 199 677 355 b 677 454 652 553 588 628 b 508 722 394 722 297 722 l 88 722 z m 188 639 l 308 639 b 396 639 454 627 500 576 b 568 501 570 378 570 351 b 570 309 567 191 475 122 b 427 86 355 82 286 82 l 188 82 z"},"^":{"x_min":0,"x_max":584,"ha":584,"o":"m 82 271 l 168 271 l 290 589 l 416 271 l 502 271 l 330 692 l 254 692 z"},"0":{"x_min":0,"x_max":556,"ha":556,"o":"m 44 338 b 44 214 66 147 89 101 b 119 40 182 -14 274 -14 b 305 -14 363 -7 412 39 b 475 98 508 190 508 354 b 508 484 483 706 276 706 b 56 706 44 441 44 338 z m 140 343 b 140 467 156 626 277 626 b 382 626 411 511 411 345 b 411 221 391 69 275 69 b 170 69 140 189 140 343 z"},"F":{"x_min":0,"x_max":556,"ha":556,"o":"m 95 0 l 197 0 l 197 328 l 506 328 l 506 412 l 197 412 l 197 637 l 525 637 l 525 722 l 95 722 z"},"`":{"x_min":0,"x_max":278,"ha":278,"o":"m 2 740 l 137 596 l 199 596 l 115 740 z"},"k":{"x_min":0,"x_max":500,"ha":500,"o":"m 81 0 l 174 0 l 174 271 l 375 0 l 498 0 l 273 289 l 485 502 l 362 502 l 174 297 l 174 727 l 81 727 z"},"u":{"x_min":0,"x_max":611,"ha":611,"o":"m 78 502 l 78 165 b 78 66 136 -5 260 -5 b 368 -5 402 51 420 86 l 422 0 l 520 0 b 519 28 517 84 517 94 l 517 502 l 420 502 l 420 218 b 420 193 420 154 399 124 b 372 84 328 68 281 68 b 185 68 174 130 174 179 l 174 502 z"},"]":{"x_min":0,"x_max":333,"ha":333,"o":"m 60 -125 l 234 -125 l 234 750 l 60 750 l 60 697 l 155 697 l 155 -72 l 60 -72 z"},"U":{"x_min":0,"x_max":778,"ha":778,"o":"m 93 722 l 93 282 b 93 174 113 132 135 100 b 202 4 322 -15 390 -15 b 442 -15 552 -4 623 85 b 681 157 682 238 682 277 l 682 722 l 585 722 l 585 279 b 585 227 585 74 390 74 b 340 74 270 85 225 145 b 210 166 193 198 193 275 l 193 722 z"},"o":{"x_min":0,"x_max":611,"ha":611,"o":"m 51 245 b 51 98 132 -17 298 -17 b 469 -17 552 105 552 252 b 552 357 507 515 306 515 b 109 515 51 369 51 245 z m 149 251 b 149 408 246 446 306 446 b 394 446 452 380 452 255 b 452 104 371 53 300 53 b 193 53 149 148 149 251 z"},"N":{"x_min":0,"x_max":778,"ha":778,"o":"m 95 0 l 186 0 l 186 613 l 553 0 l 681 0 l 681 722 l 589 722 l 589 125 l 234 722 l 95 722 z"},"+":{"x_min":0,"x_max":584,"ha":584,"o":"m 250 0 l 334 0 l 334 213 l 547 213 l 547 290 l 334 290 l 334 503 l 250 503 l 250 290 l 37 290 l 37 213 l 250 213 z"},"G":{"x_min":0,"x_max":778,"ha":778,"o":"m 686 542 b 684 570 681 612 638 657 b 569 727 482 734 425 734 b 389 734 295 731 224 683 b 87 591 69 421 69 349 b 69 247 99 146 170 74 b 221 22 299 -16 432 -16 b 555 -16 647 14 689 28 l 689 384 l 424 384 l 424 301 l 589 301 l 589 87 b 566 80 514 64 432 64 b 360 64 287 81 240 135 b 187 198 174 301 174 362 b 174 430 188 524 251 594 b 289 637 346 655 414 655 b 512 655 566 609 577 542 z"},"q":{"x_min":0,"x_max":611,"ha":611,"o":"m 434 502 l 431 419 b 409 454 362 510 260 510 b 154 510 49 438 49 253 b 49 67 156 -19 278 -19 b 301 -19 349 -16 391 13 b 414 28 424 44 432 56 l 432 -193 l 527 -193 l 527 420 b 527 438 528 482 529 502 z m 435 241 b 435 141 412 50 296 50 b 249 50 210 67 188 99 b 152 150 147 223 147 259 b 147 298 149 440 284 440 b 435 440 435 282 435 241 z"},"d":{"x_min":0,"x_max":611,"ha":611,"o":"m 436 434 b 424 455 388 519 280 519 b 162 519 53 436 53 245 b 53 25 202 -10 269 -10 b 303 -10 352 -1 393 27 b 419 45 430 66 438 80 l 440 0 l 534 0 b 532 26 530 69 530 80 l 530 721 l 436 721 z m 439 258 b 439 219 439 56 291 56 b 176 56 153 159 153 248 b 153 282 153 449 291 449 b 344 449 381 424 401 398 b 422 371 439 331 439 258 z"},"1":{"x_min":0,"x_max":556,"ha":556,"o":"m 271 0 l 367 0 l 367 692 l 278 692 b 239 659 175 617 110 583 l 110 483 b 159 506 228 547 271 583 z"},"5":{"x_min":0,"x_max":556,"ha":556,"o":"m 56 164 b 61 46 150 -16 262 -16 b 413 -16 509 87 509 223 b 509 342 441 451 302 451 b 221 451 177 408 156 387 l 169 611 l 472 611 l 472 692 l 83 692 l 65 280 l 156 280 b 161 296 167 317 188 338 b 209 359 241 374 281 374 b 361 374 412 319 412 225 b 412 180 396 66 275 66 b 223 66 162 94 160 164 z"}}}
